<svg id="svg" version="1.1" xmlns="http://www.w3.org/2000/svg" xmlns:xlink="http://www.w3.org/1999/xlink" width="400" height="400" viewBox="0, 0, 400,400"><g id="svgg"><path id="path0" d="M68.336 134.300 C 68.998 135.125,70.453 136.872,71.569 138.183 L 73.600 140.565 73.600 204.296 L 73.600 268.027 77.900 267.914 L 82.200 267.800 82.301 209.900 C 82.382 163.970,82.506 152.005,82.901 152.022 C 83.176 152.035,84.300 153.129,85.400 154.455 C 86.500 155.780,88.089 157.615,88.930 158.532 C 89.772 159.449,90.940 160.830,91.526 161.600 C 92.112 162.370,92.870 163.270,93.212 163.600 C 93.553 163.930,95.595 166.270,97.750 168.800 C 99.904 171.330,102.147 173.948,102.734 174.617 C 103.320 175.286,104.790 176.996,106.000 178.417 C 107.210 179.838,108.380 181.195,108.600 181.434 C 108.820 181.672,109.749 182.752,110.665 183.834 C 111.581 184.915,112.661 186.182,113.065 186.649 C 113.469 187.116,114.700 188.542,115.800 189.819 C 116.900 191.096,117.980 192.338,118.200 192.580 C 118.420 192.822,119.585 194.185,120.790 195.610 C 121.994 197.034,123.074 198.290,123.190 198.400 C 123.305 198.510,124.387 199.770,125.594 201.200 C 126.801 202.630,128.002 204.024,128.264 204.298 C 128.525 204.572,129.119 205.279,129.583 205.870 C 130.306 206.788,130.503 206.861,130.948 206.372 C 131.234 206.057,133.337 203.640,135.621 201.000 C 137.905 198.360,140.051 195.930,140.391 195.600 C 140.731 195.270,141.485 194.370,142.067 193.600 C 142.649 192.830,143.727 191.570,144.462 190.799 C 145.198 190.029,146.160 188.925,146.600 188.346 C 147.584 187.052,154.338 179.226,155.185 178.399 C 155.523 178.069,156.790 176.629,158.000 175.200 C 161.766 170.751,167.341 164.312,169.958 161.390 C 170.751 160.504,172.387 158.614,173.593 157.190 C 176.658 153.572,178.374 151.937,178.819 152.212 C 179.057 152.359,179.200 174.093,179.200 210.231 L 179.200 268.014 188.700 267.907 L 198.200 267.800 198.200 200.400 L 198.200 133.000 188.700 132.893 L 179.200 132.786 179.200 135.139 C 179.200 137.602,178.736 138.535,176.382 140.800 C 175.811 141.350,175.176 142.096,174.972 142.457 C 174.767 142.819,173.584 144.259,172.342 145.657 C 171.100 147.056,168.225 150.360,165.953 153.000 C 163.681 155.640,161.547 158.070,161.211 158.401 C 160.875 158.731,159.610 160.171,158.400 161.600 C 155.070 165.535,154.641 166.037,152.750 168.220 C 151.788 169.332,150.010 171.389,148.800 172.792 C 147.590 174.195,146.238 175.716,145.796 176.172 C 145.354 176.627,144.574 177.540,144.063 178.200 C 143.553 178.860,142.473 180.120,141.665 181.000 C 140.856 181.880,139.414 183.545,138.460 184.700 C 136.103 187.554,135.816 187.468,131.814 182.700 C 129.921 180.445,127.973 178.145,127.486 177.589 C 126.999 177.032,125.792 175.592,124.805 174.389 C 123.819 173.185,122.909 172.110,122.785 172.000 C 122.661 171.890,120.885 169.820,118.839 167.400 C 116.792 164.980,114.191 161.936,113.059 160.635 C 111.927 159.334,110.735 157.894,110.412 157.435 C 110.088 156.976,109.458 156.226,109.012 155.768 C 108.565 155.311,105.500 151.726,102.200 147.803 C 98.900 143.879,96.020 140.469,95.800 140.225 C 95.580 139.981,94.487 138.705,93.372 137.390 C 92.256 136.076,90.919 134.505,90.400 133.900 L 89.456 132.800 78.294 132.800 L 67.133 132.800 68.336 134.300 M233.385 133.300 C 233.280 133.575,233.241 163.950,233.297 200.800 L 233.400 267.800 243.000 267.800 L 252.600 267.800 252.800 229.600 L 253.000 191.400 283.800 191.400 L 314.600 191.400 314.800 229.600 L 315.000 267.800 324.500 267.907 L 334.000 268.014 334.000 200.400 L 334.000 132.786 324.500 132.893 L 315.000 133.000 314.897 157.854 L 314.794 182.708 313.897 182.949 C 312.719 183.264,254.255 183.273,253.433 182.957 C 252.865 182.739,252.800 180.146,252.800 157.757 L 252.800 132.800 243.187 132.800 C 235.865 132.800,233.530 132.919,233.385 133.300 " stroke="none" fill="#050404" fill-rule="evenodd"></path><path id="path1" d="M66.400 132.549 C 66.400 132.850,67.135 133.885,68.034 134.849 L 69.668 136.600 68.234 134.759 C 67.445 133.746,66.800 132.801,66.800 132.659 C 66.800 132.516,71.875 132.400,78.078 132.400 L 89.356 132.400 90.578 133.500 L 91.800 134.600 90.625 133.300 L 89.450 132.000 77.925 132.000 C 68.428 132.000,66.400 132.097,66.400 132.549 M178.673 132.260 C 178.523 132.410,178.399 133.538,178.398 134.767 C 178.396 135.997,178.116 137.539,177.775 138.200 C 177.181 139.348,177.185 139.370,177.864 138.699 C 178.370 138.199,178.619 137.192,178.732 135.199 L 178.890 132.400 188.646 132.400 L 198.402 132.400 198.301 200.300 L 198.200 268.200 188.600 268.200 L 179.000 268.200 178.899 210.500 C 178.791 149.383,178.861 151.544,177.062 153.531 C 176.698 153.934,176.400 154.404,176.400 154.576 C 176.400 154.748,176.747 154.464,177.170 153.944 C 178.418 152.415,178.398 151.578,178.501 211.400 L 178.600 268.600 188.491 268.707 L 198.381 268.814 198.600 267.907 C 198.720 267.408,198.770 236.670,198.709 199.600 L 198.600 132.200 188.773 132.093 C 183.369 132.034,178.824 132.109,178.673 132.260 M232.899 200.300 L 233.000 268.600 242.967 268.600 C 251.486 268.600,252.957 268.513,253.097 268.000 C 253.220 267.548,253.172 267.525,252.902 267.907 C 252.626 268.298,250.348 268.390,242.972 268.307 L 233.400 268.200 233.299 200.287 L 233.198 132.373 243.199 132.487 C 248.700 132.549,253.200 132.465,253.200 132.300 C 253.200 132.135,248.609 132.000,242.999 132.000 L 232.798 132.000 232.899 200.300 M314.308 132.093 C 314.257 132.152,314.122 143.450,314.008 157.200 L 313.800 182.200 283.520 182.200 C 266.866 182.200,253.376 182.336,253.543 182.503 C 253.709 182.669,267.425 182.759,284.023 182.703 L 314.200 182.600 314.408 157.600 C 314.522 143.850,314.657 132.555,314.708 132.500 C 314.758 132.445,319.211 132.400,324.601 132.400 L 334.402 132.400 334.301 200.300 L 334.200 268.200 324.850 268.307 C 318.289 268.383,315.336 268.279,314.950 267.959 C 314.492 267.578,314.384 261.161,314.302 229.451 L 314.204 191.400 314.100 229.322 C 314.030 255.012,314.130 267.496,314.412 268.022 C 314.807 268.760,315.332 268.800,324.606 268.800 L 334.385 268.800 334.602 267.900 C 334.721 267.405,334.770 236.670,334.709 199.600 L 334.600 132.200 324.500 132.093 C 318.945 132.034,314.358 132.034,314.308 132.093 M94.564 138.331 C 96.304 140.367,97.924 142.153,98.164 142.301 C 98.404 142.449,97.176 140.904,95.436 138.869 C 93.696 136.833,92.076 135.047,91.836 134.899 C 91.596 134.751,92.824 136.296,94.564 138.331 M70.000 136.996 C 70.000 137.139,70.719 138.110,71.599 139.153 L 73.198 141.049 73.299 204.824 L 73.400 268.600 77.967 268.600 C 81.678 268.600,82.568 268.488,82.717 268.000 C 82.865 267.516,82.798 267.496,82.370 267.900 C 82.017 268.233,80.467 268.400,77.720 268.400 L 73.600 268.400 73.600 204.676 L 73.600 140.952 71.800 138.843 C 70.810 137.684,70.000 136.852,70.000 136.996 M174.055 142.651 C 172.655 144.297,171.575 145.692,171.655 145.752 C 171.735 145.812,173.025 144.452,174.522 142.731 C 176.019 141.009,177.099 139.614,176.922 139.630 C 176.745 139.647,175.455 141.006,174.055 142.651 M99.999 144.799 C 100.919 145.898,101.881 146.926,102.136 147.083 C 102.391 147.239,101.723 146.340,100.651 145.084 C 99.580 143.828,98.618 142.800,98.514 142.800 C 98.410 142.800,99.079 143.699,99.999 144.799 M169.829 147.562 L 168.658 149.000 170.009 147.713 C 170.751 147.005,171.278 146.358,171.179 146.275 C 171.081 146.192,170.473 146.771,169.829 147.562 M102.400 147.725 C 102.400 147.794,102.973 148.379,103.674 149.025 L 104.949 150.200 103.974 148.922 C 103.147 147.837,102.400 147.269,102.400 147.725 M167.375 150.500 L 166.200 151.800 167.500 150.625 C 168.215 149.979,168.800 149.394,168.800 149.325 C 168.800 149.016,168.470 149.288,167.375 150.500 M104.800 150.525 C 104.800 150.594,105.385 151.179,106.100 151.825 L 107.400 153.000 106.225 151.700 C 105.130 150.488,104.800 150.216,104.800 150.525 M164.773 153.500 C 162.424 156.035,161.451 157.200,161.681 157.200 C 161.803 157.200,162.930 156.030,164.185 154.600 C 166.646 151.797,167.048 151.044,164.773 153.500 M82.800 152.800 C 82.800 153.020,82.964 153.200,83.164 153.200 C 83.365 153.200,84.625 154.470,85.964 156.023 C 87.304 157.575,88.400 158.731,88.400 158.592 C 88.400 158.219,83.452 152.466,83.100 152.430 C 82.935 152.414,82.800 152.580,82.800 152.800 M110.215 156.700 C 111.912 158.735,113.385 160.400,113.488 160.400 C 113.722 160.400,111.037 157.186,108.809 154.800 C 107.885 153.810,108.518 154.665,110.215 156.700 M157.705 161.524 C 150.567 169.921,150.570 169.917,152.247 168.200 C 154.849 165.537,161.657 157.598,161.317 157.624 C 161.143 157.637,159.517 159.392,157.705 161.524 M172.200 159.200 C 171.568 159.860,171.219 160.390,171.425 160.378 C 171.778 160.357,173.839 158.000,173.505 158.000 C 173.420 158.000,172.832 158.540,172.200 159.200 M89.800 160.400 C 91.636 162.726,93.241 164.492,93.383 164.342 C 93.457 164.264,92.432 163.030,91.106 161.600 C 89.780 160.170,89.192 159.630,89.800 160.400 M114.000 161.058 C 114.000 161.274,114.585 161.979,115.300 162.625 L 116.600 163.800 115.400 162.402 C 114.740 161.633,114.155 160.928,114.100 160.835 C 114.045 160.743,114.000 160.843,114.000 161.058 M168.149 163.884 C 167.077 165.140,166.409 166.039,166.664 165.883 C 167.223 165.539,170.554 161.600,170.286 161.600 C 170.182 161.600,169.220 162.628,168.149 163.884 M117.999 165.999 C 118.919 167.098,119.881 168.126,120.136 168.283 C 120.391 168.439,119.723 167.540,118.651 166.284 C 117.580 165.028,116.618 164.000,116.514 164.000 C 116.410 164.000,117.079 164.899,117.999 165.999 M94.401 165.800 C 94.951 166.460,95.445 167.075,95.500 167.167 C 95.555 167.258,95.688 167.245,95.796 167.138 C 95.904 167.030,95.409 166.415,94.697 165.771 L 93.403 164.600 94.401 165.800 M163.255 169.451 C 161.855 171.097,160.775 172.492,160.855 172.552 C 160.935 172.612,162.225 171.252,163.722 169.531 C 165.219 167.809,166.299 166.414,166.122 166.430 C 165.945 166.447,164.655 167.806,163.255 169.451 M98.037 170.000 C 99.208 171.430,100.218 172.675,100.283 172.767 C 100.347 172.858,100.474 172.858,100.565 172.767 C 100.655 172.675,99.645 171.430,98.319 170.000 L 95.909 167.400 98.037 170.000 M120.400 168.925 C 120.400 168.994,120.973 169.579,121.674 170.225 L 122.949 171.400 121.974 170.122 C 121.147 169.037,120.400 168.469,120.400 168.925 M148.768 171.900 C 146.409 174.543,145.874 175.200,146.082 175.200 C 146.203 175.200,147.149 174.210,148.182 173.000 C 150.096 170.760,150.555 169.898,148.768 171.900 M124.549 173.716 C 125.620 174.972,126.582 176.000,126.686 176.000 C 126.954 176.000,123.623 172.061,123.064 171.717 C 122.809 171.561,123.477 172.460,124.549 173.716 M102.873 175.700 C 104.066 177.075,107.166 180.675,109.760 183.700 C 112.354 186.725,114.565 189.200,114.674 189.200 C 114.908 189.200,114.717 188.972,107.066 180.089 C 103.802 176.300,101.035 173.200,100.917 173.200 C 100.799 173.200,101.679 174.325,102.873 175.700 M158.975 174.500 L 157.800 175.800 159.100 174.625 C 160.312 173.530,160.584 173.200,160.275 173.200 C 160.206 173.200,159.621 173.785,158.975 174.500 M144.998 176.168 C 144.779 176.481,143.818 177.651,142.863 178.768 C 141.907 179.886,141.200 180.800,141.292 180.800 C 141.383 180.800,142.492 179.630,143.755 178.200 C 145.018 176.770,145.904 175.600,145.724 175.600 C 145.543 175.600,145.217 175.856,144.998 176.168 M156.600 177.200 C 155.968 177.860,155.619 178.390,155.825 178.378 C 156.178 178.357,158.239 176.000,157.905 176.000 C 157.820 176.000,157.232 176.540,156.600 177.200 M127.200 176.658 C 127.200 176.874,127.785 177.579,128.500 178.225 L 129.800 179.400 128.600 178.002 C 127.940 177.233,127.355 176.528,127.300 176.435 C 127.245 176.343,127.200 176.443,127.200 176.658 M130.434 180.647 C 130.965 181.333,131.480 181.823,131.579 181.735 C 131.677 181.647,131.243 181.086,130.613 180.488 L 129.469 179.400 130.434 180.647 M152.163 182.300 C 150.878 183.785,150.246 184.640,150.758 184.200 C 151.824 183.284,154.970 179.600,154.686 179.600 C 154.582 179.600,153.447 180.815,152.163 182.300 M139.585 182.233 C 139.576 182.435,138.769 183.500,137.790 184.600 L 136.011 186.600 133.959 184.400 L 131.908 182.200 133.687 184.378 C 134.665 185.575,135.648 186.616,135.873 186.691 C 136.373 186.858,140.193 182.459,139.847 182.114 C 139.711 181.978,139.593 182.032,139.585 182.233 M147.400 187.817 C 146.136 189.257,145.169 190.490,145.251 190.558 C 145.333 190.626,146.450 189.448,147.734 187.941 C 149.018 186.433,149.985 185.200,149.883 185.200 C 149.781 185.200,148.664 186.378,147.400 187.817 M117.349 192.516 C 118.420 193.772,119.382 194.800,119.486 194.800 C 119.754 194.800,116.423 190.861,115.864 190.517 C 115.609 190.361,116.277 191.260,117.349 192.516 M139.866 196.459 C 138.582 197.967,137.615 199.200,137.717 199.200 C 138.005 199.200,142.517 193.981,142.349 193.842 C 142.267 193.774,141.150 194.952,139.866 196.459 M124.442 200.800 C 127.108 203.880,129.375 206.400,129.478 206.400 C 129.582 206.400,129.066 205.693,128.333 204.828 C 121.474 196.740,120.161 195.245,119.897 195.224 C 119.731 195.211,121.776 197.720,124.442 200.800 M134.175 203.100 C 132.496 205.025,130.734 206.717,130.261 206.860 C 129.408 207.118,129.407 207.121,130.237 207.160 C 130.823 207.188,132.053 206.061,134.338 203.400 C 136.133 201.310,137.518 199.600,137.416 199.600 C 137.313 199.600,135.855 201.175,134.175 203.100 " stroke="none" fill="#882626" fill-rule="evenodd"></path><path id="path2" d="M179.003 0.275 C 177.025 0.362,175.234 0.606,175.023 0.817 C 174.812 1.028,173.517 1.200,172.144 1.200 C 170.771 1.200,169.536 1.380,169.400 1.600 C 169.264 1.820,168.184 2.000,167.000 2.000 C 165.816 2.000,164.736 2.180,164.600 2.400 C 164.464 2.620,163.564 2.800,162.600 2.800 C 161.636 2.800,160.736 2.980,160.600 3.200 C 160.464 3.420,159.553 3.600,158.576 3.600 C 157.599 3.600,156.800 3.780,156.800 4.000 C 156.800 4.220,156.091 4.400,155.224 4.400 C 154.357 4.400,153.536 4.580,153.400 4.800 C 153.264 5.020,152.544 5.200,151.800 5.200 C 151.056 5.200,150.336 5.380,150.200 5.600 C 150.064 5.820,149.333 6.000,148.576 6.000 C 147.819 6.000,147.200 6.180,147.200 6.400 C 147.200 6.620,146.570 6.800,145.800 6.800 C 145.030 6.800,144.400 6.980,144.400 7.200 C 144.400 7.420,143.860 7.600,143.200 7.600 C 142.540 7.600,142.000 7.780,142.000 8.000 C 142.000 8.220,141.464 8.400,140.808 8.400 C 139.751 8.400,134.750 9.850,132.600 10.780 C 130.343 11.756,128.464 12.331,128.245 12.112 C 128.110 11.977,128.000 12.077,128.000 12.333 C 128.000 12.590,127.640 12.800,127.200 12.800 C 126.760 12.800,126.400 12.980,126.400 13.200 C 126.400 13.420,125.961 13.600,125.424 13.600 C 124.887 13.600,124.336 13.780,124.200 14.000 C 124.064 14.220,123.603 14.400,123.176 14.400 C 122.749 14.400,122.400 14.580,122.400 14.800 C 122.400 15.020,122.121 15.200,121.781 15.200 C 121.440 15.200,120.416 15.560,119.506 16.000 C 118.595 16.440,117.614 16.800,117.325 16.800 C 117.036 16.800,116.800 16.980,116.800 17.200 C 116.800 17.420,116.440 17.600,116.000 17.600 C 115.560 17.600,115.200 17.780,115.200 18.000 C 115.200 18.220,114.975 18.399,114.700 18.397 C 113.941 18.393,106.000 22.463,106.000 22.857 C 106.000 23.045,105.640 23.200,105.200 23.200 C 104.760 23.200,104.400 23.380,104.400 23.600 C 104.400 23.820,104.040 24.000,103.600 24.000 C 103.160 24.000,102.800 24.180,102.800 24.400 C 102.800 24.620,102.455 24.800,102.033 24.800 C 101.612 24.800,101.207 24.935,101.133 25.100 C 101.060 25.265,100.131 25.850,99.068 26.400 C 95.302 28.350,94.999 28.528,94.867 28.862 C 94.793 29.048,94.561 29.200,94.350 29.200 C 93.902 29.200,91.461 30.862,91.267 31.300 C 91.193 31.465,90.912 31.600,90.642 31.600 C 90.372 31.600,89.802 31.915,89.375 32.300 C 88.949 32.685,88.105 33.255,87.500 33.568 C 86.895 33.880,86.400 34.285,86.400 34.468 C 86.400 34.650,86.164 34.800,85.875 34.800 C 85.587 34.800,85.002 35.120,84.575 35.511 C 84.149 35.902,83.170 36.664,82.400 37.205 C 80.972 38.208,79.869 39.070,79.055 39.819 C 78.805 40.049,77.758 40.814,76.730 41.518 C 75.701 42.221,74.621 43.025,74.330 43.304 C 74.038 43.583,72.990 44.435,72.000 45.198 C 71.010 45.960,69.750 47.038,69.200 47.593 C 68.650 48.148,67.570 49.079,66.800 49.660 C 66.030 50.242,63.870 52.283,62.000 54.195 C 60.130 56.107,58.176 58.061,57.657 58.536 C 55.532 60.482,49.965 66.273,49.325 67.203 C 48.947 67.751,48.175 68.650,47.611 69.200 C 47.046 69.750,45.960 71.010,45.198 72.000 C 44.435 72.990,43.583 74.038,43.304 74.330 C 43.025 74.621,42.221 75.697,41.517 76.721 C 40.291 78.502,39.483 79.556,38.587 80.545 C 38.360 80.795,37.734 81.630,37.198 82.400 C 36.661 83.170,35.902 84.149,35.511 84.575 C 35.120 85.002,34.800 85.587,34.800 85.875 C 34.800 86.164,34.650 86.400,34.468 86.400 C 34.285 86.400,33.880 86.895,33.568 87.500 C 33.255 88.105,32.685 88.949,32.300 89.375 C 31.915 89.802,31.600 90.372,31.600 90.642 C 31.600 90.912,31.465 91.193,31.300 91.267 C 30.862 91.461,29.200 93.902,29.200 94.350 C 29.200 94.561,29.048 94.793,28.862 94.867 C 28.528 94.999,28.350 95.302,26.400 99.068 C 25.850 100.131,25.265 101.060,25.100 101.133 C 24.935 101.207,24.800 101.612,24.800 102.033 C 24.800 102.455,24.620 102.800,24.400 102.800 C 24.180 102.800,24.000 103.160,24.000 103.600 C 24.000 104.040,23.820 104.400,23.600 104.400 C 23.380 104.400,23.200 104.760,23.200 105.200 C 23.200 105.640,23.045 106.000,22.857 106.000 C 22.463 106.000,18.393 113.941,18.397 114.700 C 18.399 114.975,18.220 115.200,18.000 115.200 C 17.780 115.200,17.600 115.560,17.600 116.000 C 17.600 116.440,17.420 116.800,17.200 116.800 C 16.980 116.800,16.800 117.036,16.800 117.325 C 16.800 117.614,16.440 118.595,16.000 119.506 C 15.560 120.416,15.200 121.440,15.200 121.781 C 15.200 122.121,15.020 122.400,14.800 122.400 C 14.580 122.400,14.400 122.749,14.400 123.176 C 14.400 123.603,14.220 124.064,14.000 124.200 C 13.780 124.336,13.600 124.887,13.600 125.424 C 13.600 125.961,13.420 126.400,13.200 126.400 C 12.980 126.400,12.800 126.760,12.800 127.200 C 12.800 127.640,12.590 128.000,12.333 128.000 C 12.077 128.000,11.977 128.110,12.112 128.245 C 12.331 128.464,11.756 130.343,10.780 132.600 C 9.850 134.750,8.400 139.751,8.400 140.808 C 8.400 141.464,8.220 142.000,8.000 142.000 C 7.780 142.000,7.600 142.540,7.600 143.200 C 7.600 143.860,7.420 144.400,7.200 144.400 C 6.980 144.400,6.800 145.030,6.800 145.800 C 6.800 146.570,6.620 147.200,6.400 147.200 C 6.180 147.200,6.000 147.819,6.000 148.576 C 6.000 149.333,5.820 150.064,5.600 150.200 C 5.380 150.336,5.200 151.056,5.200 151.800 C 5.200 152.544,5.020 153.264,4.800 153.400 C 4.580 153.536,4.400 154.357,4.400 155.224 C 4.400 156.091,4.220 156.800,4.000 156.800 C 3.780 156.800,3.600 157.599,3.600 158.576 C 3.600 159.553,3.420 160.464,3.200 160.600 C 2.980 160.736,2.800 161.636,2.800 162.600 C 2.800 163.564,2.620 164.464,2.400 164.600 C 2.180 164.736,2.000 165.816,2.000 167.000 C 2.000 168.184,1.820 169.264,1.600 169.400 C 1.380 169.536,1.200 170.771,1.200 172.144 C 1.200 173.607,0.993 174.847,0.700 175.140 C -0.029 175.869,-0.029 224.131,0.700 224.860 C 0.993 225.153,1.200 226.393,1.200 227.856 C 1.200 229.229,1.380 230.464,1.600 230.600 C 1.820 230.736,2.000 231.816,2.000 233.000 C 2.000 234.184,2.180 235.264,2.400 235.400 C 2.620 235.536,2.800 236.436,2.800 237.400 C 2.800 238.364,2.980 239.264,3.200 239.400 C 3.420 239.536,3.600 240.447,3.600 241.424 C 3.600 242.401,3.780 243.200,4.000 243.200 C 4.220 243.200,4.400 243.909,4.400 244.776 C 4.400 245.643,4.580 246.464,4.800 246.600 C 5.020 246.736,5.200 247.456,5.200 248.200 C 5.200 248.944,5.380 249.664,5.600 249.800 C 5.820 249.936,6.000 250.667,6.000 251.424 C 6.000 252.181,6.180 252.800,6.400 252.800 C 6.620 252.800,6.800 253.419,6.800 254.176 C 6.800 254.933,6.980 255.664,7.200 255.800 C 7.420 255.936,7.600 256.476,7.600 257.000 C 7.600 257.524,7.780 258.064,8.000 258.200 C 8.220 258.336,8.400 258.883,8.400 259.415 C 8.400 260.295,9.936 265.450,10.780 267.400 C 11.756 269.657,12.331 271.536,12.112 271.755 C 11.977 271.890,12.077 272.000,12.333 272.000 C 12.590 272.000,12.800 272.272,12.800 272.605 C 12.800 273.193,12.967 273.618,13.938 275.495 C 14.192 275.987,14.400 276.662,14.400 276.995 C 14.400 277.328,14.580 277.600,14.800 277.600 C 15.020 277.600,15.200 277.879,15.200 278.219 C 15.200 278.560,15.560 279.584,16.000 280.494 C 16.440 281.405,16.800 282.386,16.800 282.675 C 16.800 282.964,16.980 283.200,17.200 283.200 C 17.420 283.200,17.600 283.560,17.600 284.000 C 17.600 284.440,17.780 284.800,18.000 284.800 C 18.220 284.800,18.399 285.025,18.397 285.300 C 18.393 286.059,22.463 294.000,22.857 294.000 C 23.045 294.000,23.200 294.360,23.200 294.800 C 23.200 295.240,23.380 295.600,23.600 295.600 C 23.820 295.600,24.000 295.960,24.000 296.400 C 24.000 296.840,24.180 297.200,24.400 297.200 C 24.620 297.200,24.800 297.545,24.800 297.967 C 24.800 298.388,24.935 298.793,25.100 298.867 C 25.362 298.983,26.817 301.566,28.159 304.297 C 28.402 304.790,28.735 305.195,28.900 305.197 C 29.065 305.199,29.200 305.470,29.200 305.800 C 29.200 306.130,29.358 306.400,29.551 306.400 C 29.745 306.400,30.127 306.940,30.400 307.600 C 30.673 308.260,31.055 308.800,31.249 308.800 C 31.442 308.800,31.600 309.036,31.600 309.325 C 31.600 309.613,31.915 310.198,32.300 310.625 C 32.685 311.051,33.255 311.895,33.568 312.500 C 33.880 313.105,34.285 313.600,34.468 313.600 C 34.650 313.600,34.800 313.825,34.800 314.100 C 34.801 314.375,35.266 315.140,35.835 315.800 C 36.404 316.460,37.163 317.495,37.521 318.100 C 37.879 318.705,38.314 319.200,38.486 319.200 C 38.659 319.200,38.800 319.393,38.800 319.629 C 38.800 319.864,39.025 320.286,39.300 320.565 C 39.575 320.845,40.250 321.666,40.800 322.390 C 41.350 323.114,42.112 324.088,42.493 324.553 C 42.874 325.019,43.325 325.580,43.496 325.800 C 43.667 326.020,44.435 327.010,45.204 328.000 C 45.972 328.990,47.185 330.391,47.900 331.113 C 48.615 331.836,49.200 332.561,49.200 332.726 C 49.200 332.962,55.386 339.361,58.070 341.902 C 58.361 342.178,60.130 343.958,62.000 345.858 C 63.869 347.757,66.029 349.781,66.800 350.354 C 67.570 350.928,68.650 351.852,69.200 352.407 C 69.750 352.962,71.010 354.041,72.000 354.804 C 72.990 355.568,74.160 356.523,74.600 356.927 C 75.040 357.331,75.895 357.957,76.500 358.317 C 77.105 358.678,77.600 359.114,77.600 359.286 C 77.600 359.459,77.830 359.600,78.112 359.600 C 78.393 359.600,78.883 359.960,79.200 360.400 C 79.517 360.840,80.007 361.200,80.288 361.200 C 80.570 361.200,80.800 361.341,80.800 361.514 C 80.800 361.686,81.295 362.121,81.900 362.479 C 82.505 362.837,83.540 363.596,84.200 364.165 C 84.860 364.734,85.625 365.199,85.900 365.200 C 86.175 365.200,86.400 365.350,86.400 365.532 C 86.400 365.715,86.895 366.120,87.500 366.432 C 88.105 366.745,88.949 367.315,89.375 367.700 C 89.802 368.085,90.372 368.400,90.642 368.400 C 90.912 368.400,91.193 368.535,91.267 368.700 C 91.411 369.025,93.850 370.800,94.152 370.800 C 94.253 370.800,95.953 371.790,97.930 373.000 C 99.907 374.210,101.811 375.200,102.162 375.200 C 102.513 375.200,102.800 375.380,102.800 375.600 C 102.800 375.820,103.160 376.000,103.600 376.000 C 104.040 376.000,104.400 376.180,104.400 376.400 C 104.400 376.620,104.760 376.800,105.200 376.800 C 105.640 376.800,106.000 376.955,106.000 377.143 C 106.000 377.537,113.941 381.607,114.700 381.603 C 114.975 381.601,115.200 381.780,115.200 382.000 C 115.200 382.220,115.560 382.400,116.000 382.400 C 116.440 382.400,116.800 382.580,116.800 382.800 C 116.800 383.020,117.065 383.200,117.388 383.200 C 117.711 383.200,118.617 383.560,119.400 384.000 C 120.183 384.440,121.179 384.800,121.612 384.800 C 122.045 384.800,122.400 384.980,122.400 385.200 C 122.400 385.420,122.749 385.600,123.176 385.600 C 123.603 385.600,124.064 385.780,124.200 386.000 C 124.336 386.220,124.887 386.400,125.424 386.400 C 125.961 386.400,126.400 386.580,126.400 386.800 C 126.400 387.020,126.672 387.200,127.005 387.200 C 127.593 387.200,128.018 387.367,129.895 388.338 C 130.387 388.592,131.064 388.800,131.400 388.800 C 131.736 388.800,132.323 388.976,132.705 389.191 C 134.032 389.938,139.624 391.600,140.808 391.600 C 141.464 391.600,142.000 391.780,142.000 392.000 C 142.000 392.220,142.540 392.400,143.200 392.400 C 143.860 392.400,144.400 392.580,144.400 392.800 C 144.400 393.020,145.030 393.200,145.800 393.200 C 146.570 393.200,147.200 393.380,147.200 393.600 C 147.200 393.820,147.819 394.000,148.576 394.000 C 149.333 394.000,150.064 394.180,150.200 394.400 C 150.336 394.620,151.056 394.800,151.800 394.800 C 152.544 394.800,153.264 394.980,153.400 395.200 C 153.536 395.420,154.357 395.600,155.224 395.600 C 156.091 395.600,156.800 395.780,156.800 396.000 C 156.800 396.220,157.599 396.400,158.576 396.400 C 159.553 396.400,160.464 396.580,160.600 396.800 C 160.736 397.020,161.636 397.200,162.600 397.200 C 163.564 397.200,164.464 397.380,164.600 397.600 C 164.736 397.820,165.816 398.000,167.000 398.000 C 168.184 398.000,169.264 398.180,169.400 398.400 C 169.536 398.620,170.771 398.800,172.144 398.800 C 173.607 398.800,174.847 399.007,175.140 399.300 C 175.529 399.689,181.045 399.800,200.000 399.800 C 218.955 399.800,224.471 399.689,224.860 399.300 C 225.153 399.007,226.393 398.800,227.856 398.800 C 229.229 398.800,230.464 398.620,230.600 398.400 C 230.736 398.180,231.816 398.000,233.000 398.000 C 234.184 398.000,235.264 397.820,235.400 397.600 C 235.536 397.380,236.436 397.200,237.400 397.200 C 238.364 397.200,239.264 397.020,239.400 396.800 C 239.536 396.580,240.447 396.400,241.424 396.400 C 242.401 396.400,243.200 396.220,243.200 396.000 C 243.200 395.780,243.909 395.600,244.776 395.600 C 245.643 395.600,246.464 395.420,246.600 395.200 C 246.736 394.980,247.557 394.800,248.424 394.800 C 249.291 394.800,250.000 394.620,250.000 394.400 C 250.000 394.180,250.630 394.000,251.400 394.000 C 252.170 394.000,252.800 393.820,252.800 393.600 C 252.800 393.380,253.419 393.200,254.176 393.200 C 254.933 393.200,255.664 393.020,255.800 392.800 C 255.936 392.580,256.476 392.400,257.000 392.400 C 257.524 392.400,258.064 392.220,258.200 392.000 C 258.336 391.780,258.883 391.600,259.415 391.600 C 260.426 391.600,266.092 389.868,267.295 389.191 C 267.677 388.976,268.264 388.800,268.600 388.800 C 268.936 388.800,269.523 388.641,269.905 388.447 C 270.287 388.252,271.050 387.916,271.600 387.700 C 273.354 387.011,274.979 386.317,275.695 385.953 C 276.077 385.759,276.662 385.600,276.995 385.600 C 277.328 385.600,277.600 385.420,277.600 385.200 C 277.600 384.980,278.039 384.800,278.576 384.800 C 279.113 384.800,279.664 384.620,279.800 384.400 C 279.936 384.180,280.397 384.000,280.824 384.000 C 281.251 384.000,281.600 383.820,281.600 383.600 C 281.600 383.380,281.960 383.200,282.400 383.200 C 282.840 383.200,283.200 383.020,283.200 382.800 C 283.200 382.580,283.560 382.400,284.000 382.400 C 284.440 382.400,284.800 382.220,284.800 382.000 C 284.800 381.780,285.065 381.600,285.388 381.600 C 285.711 381.600,286.617 381.240,287.400 380.800 C 288.183 380.360,289.074 380.000,289.379 380.000 C 289.684 380.000,289.993 379.865,290.067 379.700 C 290.140 379.535,291.055 378.967,292.100 378.437 C 293.145 377.908,294.000 377.323,294.000 377.137 C 294.000 376.952,294.360 376.800,294.800 376.800 C 295.240 376.800,295.600 376.620,295.600 376.400 C 295.600 376.180,295.960 376.000,296.400 376.000 C 296.840 376.000,297.200 375.820,297.200 375.600 C 297.200 375.380,297.487 375.200,297.838 375.200 C 298.189 375.200,300.093 374.210,302.070 373.000 C 304.047 371.790,305.830 370.800,306.032 370.800 C 306.234 370.800,306.400 370.620,306.400 370.400 C 306.400 370.180,306.636 370.000,306.925 370.000 C 307.213 370.000,307.798 369.685,308.225 369.300 C 308.651 368.915,309.495 368.345,310.100 368.032 C 310.705 367.720,311.200 367.315,311.200 367.132 C 311.200 366.950,311.436 366.800,311.725 366.800 C 312.013 366.800,312.636 366.440,313.108 366.000 C 313.580 365.560,314.109 365.200,314.283 365.199 C 314.457 365.199,315.230 364.659,316.000 364.000 C 316.770 363.341,317.585 362.801,317.812 362.801 C 318.038 362.800,318.483 362.440,318.800 362.000 C 319.117 361.560,319.515 361.200,319.684 361.200 C 319.970 361.200,320.333 360.929,322.495 359.100 C 322.950 358.715,323.430 358.399,323.561 358.398 C 323.693 358.397,324.340 357.902,325.000 357.298 C 325.660 356.694,326.888 355.686,327.730 355.057 C 328.571 354.428,329.870 353.303,330.616 352.557 C 331.363 351.811,332.126 351.200,332.313 351.200 C 332.596 351.200,334.343 349.516,341.930 341.930 C 349.516 334.343,351.200 332.596,351.200 332.313 C 351.200 332.126,351.811 331.363,352.557 330.616 C 353.303 329.870,354.427 328.571,355.055 327.730 C 355.682 326.888,356.296 326.110,356.419 326.000 C 356.542 325.890,357.173 325.084,357.821 324.208 C 359.275 322.245,360.051 321.268,360.700 320.584 C 360.975 320.294,361.200 319.904,361.200 319.717 C 361.200 319.530,361.560 319.117,362.000 318.800 C 362.440 318.483,362.800 318.038,362.801 317.812 C 362.801 317.585,363.341 316.770,364.000 316.000 C 364.659 315.230,365.199 314.375,365.199 314.100 C 365.200 313.825,365.350 313.600,365.532 313.600 C 365.715 313.600,366.120 313.105,366.432 312.500 C 366.745 311.895,367.315 311.051,367.700 310.625 C 368.085 310.198,368.400 309.696,368.400 309.508 C 368.400 309.320,368.760 308.780,369.200 308.308 C 369.640 307.836,370.000 307.213,370.000 306.925 C 370.000 306.636,370.180 306.400,370.400 306.400 C 370.620 306.400,370.800 306.234,370.800 306.032 C 370.800 305.830,371.790 304.047,373.000 302.070 C 374.210 300.093,375.200 298.189,375.200 297.838 C 375.200 297.487,375.380 297.200,375.600 297.200 C 375.820 297.200,376.000 296.840,376.000 296.400 C 376.000 295.960,376.180 295.600,376.400 295.600 C 376.620 295.600,376.800 295.240,376.800 294.800 C 376.800 294.360,376.955 294.000,377.143 294.000 C 377.537 294.000,381.607 286.059,381.603 285.300 C 381.601 285.025,381.780 284.800,382.000 284.800 C 382.220 284.800,382.400 284.440,382.400 284.000 C 382.400 283.560,382.580 283.200,382.800 283.200 C 383.020 283.200,383.200 282.840,383.200 282.400 C 383.200 281.960,383.380 281.600,383.600 281.600 C 383.820 281.600,384.000 281.251,384.000 280.824 C 384.000 280.397,384.180 279.936,384.400 279.800 C 384.620 279.664,384.800 279.113,384.800 278.576 C 384.800 278.039,384.980 277.600,385.200 277.600 C 385.420 277.600,385.600 277.328,385.600 276.995 C 385.600 276.662,385.759 276.077,385.953 275.695 C 386.148 275.313,386.508 274.505,386.753 273.900 C 386.999 273.295,387.401 272.305,387.647 271.700 C 387.892 271.095,388.252 270.287,388.447 269.905 C 388.641 269.523,388.800 268.936,388.800 268.600 C 388.800 268.264,388.976 267.677,389.191 267.295 C 389.868 266.092,391.600 260.426,391.600 259.415 C 391.600 258.883,391.780 258.336,392.000 258.200 C 392.220 258.064,392.400 257.524,392.400 257.000 C 392.400 256.476,392.580 255.936,392.800 255.800 C 393.020 255.664,393.200 254.933,393.200 254.176 C 393.200 253.419,393.380 252.800,393.600 252.800 C 393.820 252.800,394.000 252.170,394.000 251.400 C 394.000 250.630,394.180 250.000,394.400 250.000 C 394.620 250.000,394.800 249.291,394.800 248.424 C 394.800 247.557,394.980 246.736,395.200 246.600 C 395.420 246.464,395.600 245.643,395.600 244.776 C 395.600 243.909,395.780 243.200,396.000 243.200 C 396.220 243.200,396.400 242.401,396.400 241.424 C 396.400 240.447,396.580 239.536,396.800 239.400 C 397.020 239.264,397.200 238.364,397.200 237.400 C 397.200 236.436,397.380 235.536,397.600 235.400 C 397.820 235.264,398.000 234.184,398.000 233.000 C 398.000 231.816,398.180 230.736,398.400 230.600 C 398.620 230.464,398.800 229.229,398.800 227.856 C 398.800 226.393,399.007 225.153,399.300 224.860 C 400.029 224.131,400.029 175.869,399.300 175.140 C 399.007 174.847,398.800 173.607,398.800 172.144 C 398.800 170.771,398.620 169.536,398.400 169.400 C 398.180 169.264,398.000 168.184,398.000 167.000 C 398.000 165.816,397.820 164.736,397.600 164.600 C 397.380 164.464,397.200 163.564,397.200 162.600 C 397.200 161.636,397.020 160.736,396.800 160.600 C 396.580 160.464,396.400 159.553,396.400 158.576 C 396.400 157.599,396.220 156.800,396.000 156.800 C 395.780 156.800,395.600 156.091,395.600 155.224 C 395.600 154.357,395.420 153.536,395.200 153.400 C 394.980 153.264,394.800 152.544,394.800 151.800 C 394.800 151.056,394.620 150.336,394.400 150.200 C 394.180 150.064,394.000 149.333,394.000 148.576 C 394.000 147.819,393.820 147.200,393.600 147.200 C 393.380 147.200,393.200 146.570,393.200 145.800 C 393.200 145.030,393.020 144.400,392.800 144.400 C 392.580 144.400,392.400 143.860,392.400 143.200 C 392.400 142.540,392.220 142.000,392.000 142.000 C 391.780 142.000,391.600 141.464,391.600 140.808 C 391.600 139.624,389.938 134.032,389.191 132.705 C 388.976 132.323,388.800 131.736,388.800 131.400 C 388.800 131.064,388.620 130.432,388.400 129.995 C 388.180 129.558,387.820 128.842,387.600 128.405 C 387.380 127.968,387.200 127.338,387.200 127.005 C 387.200 126.672,387.020 126.400,386.800 126.400 C 386.580 126.400,386.400 125.961,386.400 125.424 C 386.400 124.887,386.220 124.336,386.000 124.200 C 385.780 124.064,385.600 123.603,385.600 123.176 C 385.600 122.749,385.420 122.400,385.200 122.400 C 384.980 122.400,384.800 122.045,384.800 121.612 C 384.800 121.179,384.440 120.183,384.000 119.400 C 383.560 118.617,383.200 117.711,383.200 117.388 C 383.200 117.065,383.020 116.800,382.800 116.800 C 382.580 116.800,382.400 116.440,382.400 116.000 C 382.400 115.560,382.220 115.200,382.000 115.200 C 381.780 115.200,381.601 114.975,381.603 114.700 C 381.607 113.941,377.537 106.000,377.143 106.000 C 376.955 106.000,376.800 105.640,376.800 105.200 C 376.800 104.760,376.620 104.400,376.400 104.400 C 376.180 104.400,376.000 104.040,376.000 103.600 C 376.000 103.160,375.820 102.800,375.600 102.800 C 375.380 102.800,375.200 102.513,375.200 102.162 C 375.200 101.811,374.210 99.907,373.000 97.930 C 371.790 95.953,370.800 94.253,370.800 94.152 C 370.800 93.850,369.025 91.411,368.700 91.267 C 368.535 91.193,368.400 90.912,368.400 90.642 C 368.400 90.372,368.085 89.802,367.700 89.375 C 367.315 88.949,366.745 88.105,366.432 87.500 C 366.120 86.895,365.715 86.400,365.532 86.400 C 365.350 86.400,365.200 86.175,365.200 85.900 C 365.199 85.625,364.734 84.860,364.165 84.200 C 363.596 83.540,362.837 82.505,362.479 81.900 C 362.121 81.295,361.686 80.800,361.514 80.800 C 361.341 80.800,361.200 80.570,361.200 80.288 C 361.200 80.007,360.840 79.517,360.400 79.200 C 359.960 78.883,359.600 78.393,359.600 78.112 C 359.600 77.830,359.459 77.600,359.286 77.600 C 359.114 77.600,358.678 77.105,358.317 76.500 C 357.957 75.895,357.331 75.040,356.927 74.600 C 356.523 74.160,355.568 72.990,354.804 72.000 C 354.041 71.010,352.962 69.750,352.407 69.200 C 351.852 68.650,350.928 67.570,350.354 66.800 C 349.781 66.029,347.757 63.869,345.858 62.000 C 343.958 60.130,342.178 58.361,341.902 58.070 C 339.361 55.386,332.962 49.200,332.726 49.200 C 332.561 49.200,331.836 48.615,331.113 47.900 C 330.391 47.185,328.990 45.972,328.000 45.204 C 327.010 44.435,326.020 43.667,325.800 43.496 C 325.580 43.325,325.019 42.874,324.553 42.493 C 324.088 42.112,323.114 41.350,322.390 40.800 C 321.666 40.250,320.845 39.575,320.565 39.300 C 320.286 39.025,319.864 38.800,319.629 38.800 C 319.393 38.800,319.200 38.659,319.200 38.486 C 319.200 38.314,318.705 37.879,318.100 37.521 C 317.495 37.163,316.460 36.404,315.800 35.835 C 315.140 35.266,314.375 34.801,314.100 34.800 C 313.825 34.800,313.600 34.650,313.600 34.468 C 313.600 34.285,313.105 33.880,312.500 33.568 C 311.895 33.255,311.051 32.685,310.625 32.300 C 310.198 31.915,309.613 31.600,309.325 31.600 C 309.036 31.600,308.800 31.442,308.800 31.249 C 308.800 31.055,308.260 30.673,307.600 30.400 C 306.940 30.127,306.400 29.745,306.400 29.551 C 306.400 29.358,306.130 29.200,305.800 29.200 C 305.470 29.200,305.199 29.065,305.197 28.900 C 305.195 28.735,304.790 28.402,304.297 28.159 C 301.566 26.817,298.983 25.362,298.867 25.100 C 298.793 24.935,298.388 24.800,297.967 24.800 C 297.545 24.800,297.200 24.620,297.200 24.400 C 297.200 24.180,296.840 24.000,296.400 24.000 C 295.960 24.000,295.600 23.820,295.600 23.600 C 295.600 23.380,295.240 23.200,294.800 23.200 C 294.360 23.200,294.000 23.045,294.000 22.857 C 294.000 22.463,286.059 18.393,285.300 18.397 C 285.025 18.399,284.800 18.220,284.800 18.000 C 284.800 17.780,284.440 17.600,284.000 17.600 C 283.560 17.600,283.200 17.420,283.200 17.200 C 283.200 16.980,282.964 16.800,282.675 16.800 C 282.386 16.800,281.405 16.440,280.494 16.000 C 279.584 15.560,278.560 15.200,278.219 15.200 C 277.879 15.200,277.600 15.020,277.600 14.800 C 277.600 14.580,277.328 14.400,276.995 14.400 C 276.662 14.400,275.987 14.192,275.495 13.938 C 273.618 12.967,273.193 12.800,272.605 12.800 C 272.272 12.800,272.000 12.590,272.000 12.333 C 272.000 12.077,271.890 11.977,271.755 12.112 C 271.536 12.331,269.657 11.756,267.400 10.780 C 265.450 9.936,260.295 8.400,259.415 8.400 C 258.883 8.400,258.336 8.220,258.200 8.000 C 258.064 7.780,257.524 7.600,257.000 7.600 C 256.476 7.600,255.936 7.420,255.800 7.200 C 255.664 6.980,254.933 6.800,254.176 6.800 C 253.419 6.800,252.800 6.620,252.800 6.400 C 252.800 6.180,252.181 6.000,251.424 6.000 C 250.667 6.000,249.936 5.820,249.800 5.600 C 249.664 5.380,248.944 5.200,248.200 5.200 C 247.456 5.200,246.736 5.020,246.600 4.800 C 246.464 4.580,245.643 4.400,244.776 4.400 C 243.909 4.400,243.200 4.220,243.200 4.000 C 243.200 3.780,242.401 3.600,241.424 3.600 C 240.447 3.600,239.536 3.420,239.400 3.200 C 239.264 2.980,238.364 2.800,237.400 2.800 C 236.436 2.800,235.536 2.620,235.400 2.400 C 235.264 2.180,234.184 2.000,233.000 2.000 C 231.816 2.000,230.736 1.820,230.600 1.600 C 230.464 1.380,229.229 1.200,227.856 1.200 C 226.434 1.200,225.151 0.991,224.875 0.715 C 224.394 0.234,187.860 -0.116,179.003 0.275 M90.518 132.503 C 91.003 132.999,91.870 134.034,92.445 134.803 C 93.020 135.571,94.080 136.830,94.800 137.600 C 95.520 138.370,96.580 139.628,97.155 140.394 C 97.730 141.161,98.740 142.353,99.400 143.043 C 100.060 143.732,102.220 146.239,104.200 148.613 C 106.180 150.987,108.164 153.305,108.609 153.764 C 109.053 154.224,109.857 155.230,110.393 156.000 C 110.930 156.770,111.828 157.850,112.388 158.400 C 112.949 158.950,114.213 160.390,115.197 161.600 C 116.181 162.810,117.265 164.070,117.607 164.400 C 117.949 164.730,118.941 165.900,119.812 167.000 C 120.684 168.100,121.673 169.270,122.010 169.600 C 122.347 169.930,123.247 171.010,124.010 172.000 C 124.773 172.990,125.791 174.201,126.272 174.691 C 126.752 175.181,127.653 176.252,128.273 177.070 C 129.336 178.474,130.431 179.724,134.344 184.000 L 135.991 185.800 138.020 183.600 C 139.136 182.390,140.803 180.584,141.724 179.586 C 142.646 178.588,144.027 176.968,144.794 175.986 C 145.561 175.004,146.371 174.007,146.594 173.770 C 146.817 173.534,147.900 172.279,149.000 170.982 C 150.100 169.686,151.738 167.809,152.639 166.812 C 153.540 165.816,154.620 164.571,155.039 164.046 C 155.458 163.521,156.520 162.347,157.400 161.438 C 158.280 160.529,159.475 159.159,160.055 158.393 C 160.635 157.627,161.508 156.550,161.994 156.000 C 162.481 155.450,163.716 154.028,164.740 152.839 C 165.763 151.651,166.783 150.481,167.006 150.239 C 167.229 149.998,168.399 148.634,169.606 147.209 C 170.813 145.785,172.430 143.985,173.200 143.209 C 173.970 142.434,175.092 141.141,175.694 140.335 C 176.296 139.529,177.052 138.605,177.375 138.282 C 177.759 137.898,178.004 136.671,178.082 134.747 L 178.200 131.800 188.600 131.800 L 199.000 131.800 199.101 199.958 C 199.175 250.001,199.083 268.259,198.752 268.658 C 198.283 269.223,180.034 269.495,178.633 268.957 C 178.060 268.737,178.000 263.267,178.000 211.093 L 178.000 153.471 176.700 155.009 C 175.985 155.855,174.770 157.227,174.000 158.058 C 173.230 158.888,172.150 160.158,171.600 160.879 C 171.050 161.600,169.880 162.999,169.000 163.988 C 165.239 168.212,162.282 171.609,161.400 172.719 C 160.960 173.272,160.060 174.284,159.400 174.966 C 158.740 175.649,157.391 177.196,156.402 178.404 C 155.413 179.612,154.423 180.793,154.202 181.030 C 153.981 181.266,152.900 182.517,151.800 183.810 C 150.700 185.102,149.350 186.649,148.800 187.248 C 148.250 187.846,147.170 189.104,146.400 190.044 C 145.630 190.983,144.145 192.630,143.100 193.703 C 142.055 194.775,141.198 195.776,141.197 195.927 C 141.195 196.077,140.607 196.830,139.890 197.600 C 139.174 198.370,137.690 200.075,136.594 201.388 C 135.497 202.702,133.650 204.772,132.488 205.988 L 130.377 208.200 129.547 207.200 C 128.339 205.742,125.234 202.204,123.470 200.274 C 122.628 199.353,121.458 197.971,120.870 197.203 C 120.281 196.434,119.440 195.431,119.000 194.973 C 118.560 194.515,116.400 192.009,114.200 189.405 C 112.000 186.800,109.840 184.292,109.400 183.833 C 108.960 183.373,107.792 182.008,106.804 180.799 C 105.816 179.589,104.555 178.150,104.003 177.600 C 103.450 177.050,102.491 175.921,101.871 175.091 C 101.252 174.261,100.353 173.181,99.873 172.691 C 99.393 172.201,98.100 170.724,97.000 169.408 C 95.900 168.093,94.607 166.612,94.127 166.118 C 93.647 165.623,92.748 164.539,92.129 163.709 C 91.509 162.879,90.550 161.750,89.997 161.200 C 89.445 160.650,88.184 159.213,87.196 158.007 C 86.208 156.801,84.905 155.289,84.300 154.648 L 83.200 153.481 83.200 211.098 C 83.200 263.268,83.140 268.737,82.567 268.957 C 81.258 269.460,73.716 269.222,73.253 268.663 C 72.931 268.275,72.779 250.461,72.704 204.317 L 72.600 140.508 71.400 139.348 C 70.076 138.068,66.335 133.714,65.823 132.855 C 65.176 131.772,66.754 131.612,78.118 131.606 C 89.550 131.600,89.643 131.607,90.518 132.503 M253.503 156.700 L 253.606 181.600 283.603 181.600 L 313.600 181.600 313.600 157.626 C 313.600 143.017,313.752 133.251,313.990 132.626 L 314.380 131.600 324.157 131.600 C 329.535 131.600,334.219 131.709,334.567 131.843 C 335.343 132.140,335.558 266.983,334.786 268.426 C 334.325 269.287,315.710 269.636,314.400 268.809 C 313.875 268.477,313.787 263.692,313.694 230.415 L 313.588 192.400 283.594 192.400 L 253.600 192.400 253.600 230.557 C 253.600 264.983,253.538 268.738,252.967 268.957 C 251.699 269.444,233.387 269.227,232.880 268.720 C 232.352 268.192,232.146 132.387,232.673 131.860 C 232.824 131.710,237.549 131.635,243.173 131.693 L 253.400 131.800 253.503 156.700 " stroke="none" fill="#fb5454" fill-rule="evenodd"></path><path id="path3" d="M66.800 132.637 C 66.800 133.050,69.785 136.765,70.131 136.783 C 70.313 136.792,69.731 135.945,68.838 134.900 L 67.214 133.000 78.284 132.894 L 89.355 132.787 91.521 135.094 L 93.686 137.400 91.604 134.900 L 89.521 132.400 78.160 132.400 C 71.912 132.400,66.800 132.507,66.800 132.637 M178.734 135.171 C 178.627 137.057,178.357 138.184,177.889 138.702 C 177.510 139.121,177.200 139.619,177.200 139.809 C 177.200 140.000,177.650 139.545,178.200 138.800 C 178.998 137.719,179.200 136.972,179.200 135.108 L 179.200 132.772 188.800 132.886 C 194.080 132.949,198.400 132.865,198.400 132.700 C 198.400 132.535,194.010 132.400,188.645 132.400 L 178.890 132.400 178.734 135.171 M233.200 132.693 C 233.200 132.862,237.610 132.949,243.000 132.886 L 252.800 132.773 252.800 157.744 C 252.800 180.145,252.865 182.739,253.433 182.957 C 253.781 183.091,267.506 183.157,283.933 183.104 L 313.800 183.008 283.600 182.804 L 253.400 182.600 253.200 157.600 L 253.000 132.600 243.100 132.493 C 237.655 132.434,233.200 132.524,233.200 132.693 M314.709 132.500 C 314.454 132.780,314.243 182.800,314.497 182.800 C 314.660 182.800,314.840 171.595,314.897 157.900 L 315.000 133.000 324.500 132.893 L 334.000 132.786 334.000 200.400 L 334.000 268.014 324.500 267.907 L 315.000 267.800 314.800 229.600 L 314.600 191.400 283.800 191.400 L 253.000 191.400 252.800 229.600 L 252.600 267.800 242.938 267.800 C 237.624 267.800,233.359 267.935,233.462 268.100 C 233.875 268.768,252.697 268.447,252.957 267.767 C 253.091 267.419,253.200 250.139,253.200 229.367 L 253.200 191.600 283.800 191.600 L 314.400 191.600 314.400 229.551 C 314.400 261.264,314.490 267.577,314.950 267.959 C 315.336 268.279,318.289 268.383,324.850 268.307 L 334.200 268.200 334.301 200.300 L 334.402 132.400 324.601 132.400 C 319.211 132.400,314.759 132.445,314.709 132.500 M70.400 137.325 C 70.400 137.394,70.985 137.979,71.700 138.625 L 73.000 139.800 71.825 138.500 C 70.730 137.288,70.400 137.016,70.400 137.325 M94.401 138.600 C 94.951 139.260,95.445 139.875,95.500 139.967 C 95.555 140.058,95.688 140.045,95.796 139.938 C 95.904 139.830,95.409 139.215,94.697 138.571 L 93.403 137.400 94.401 138.600 M97.749 142.516 C 98.820 143.772,99.782 144.800,99.886 144.800 C 100.154 144.800,96.823 140.861,96.264 140.517 C 96.009 140.361,96.677 141.260,97.749 142.516 M173.472 143.813 C 172.632 144.796,172.058 145.600,172.198 145.600 C 172.468 145.600,174.385 143.446,174.920 142.541 C 175.481 141.591,175.041 141.978,173.472 143.813 M103.065 148.734 C 104.789 150.787,106.740 153.166,107.400 154.019 C 108.060 154.872,108.748 155.577,108.929 155.585 C 109.257 155.600,104.371 149.746,101.465 146.640 C 100.620 145.738,101.340 146.680,103.065 148.734 M166.238 152.181 C 163.687 155.141,161.600 157.665,161.600 157.791 C 161.600 157.917,163.427 155.900,165.661 153.310 C 167.895 150.719,170.086 148.195,170.531 147.700 C 170.976 147.205,171.235 146.800,171.108 146.800 C 170.981 146.800,168.789 149.221,166.238 152.181 M82.301 209.900 L 82.200 267.800 77.800 268.021 L 73.400 268.242 77.620 268.321 C 80.465 268.374,81.996 268.244,82.320 267.920 C 82.689 267.551,82.800 254.132,82.800 209.953 C 82.800 164.338,82.903 152.425,83.300 152.265 C 83.599 152.144,83.519 152.050,83.101 152.032 C 82.440 152.002,82.397 155.091,82.301 209.900 M177.759 152.593 C 177.035 153.134,177.041 153.150,177.899 152.934 L 178.797 152.707 178.899 210.454 L 179.000 268.200 188.372 268.308 C 193.527 268.367,197.884 268.277,198.053 268.108 C 198.223 267.938,194.050 267.851,188.781 267.914 L 179.200 268.028 179.200 210.237 C 179.200 178.453,179.047 152.352,178.859 152.236 C 178.671 152.120,178.176 152.281,177.759 152.593 M85.397 154.900 C 86.472 156.165,87.423 157.200,87.510 157.200 C 87.783 157.200,85.329 154.236,84.364 153.400 C 83.856 152.960,84.321 153.635,85.397 154.900 M175.398 154.968 C 175.179 155.281,174.218 156.451,173.263 157.568 C 172.307 158.686,171.600 159.600,171.692 159.600 C 171.783 159.600,172.892 158.430,174.155 157.000 C 175.418 155.570,176.304 154.400,176.124 154.400 C 175.943 154.400,175.617 154.656,175.398 154.968 M110.455 157.439 C 111.251 158.664,113.627 161.308,113.784 161.142 C 113.857 161.064,113.016 160.010,111.914 158.800 C 110.812 157.590,110.155 156.977,110.455 157.439 M90.253 160.600 C 92.145 162.791,92.917 163.467,91.923 162.061 C 91.050 160.828,88.840 158.400,88.589 158.400 C 88.460 158.400,89.209 159.390,90.253 160.600 M168.264 163.263 C 166.760 164.989,165.680 166.384,165.864 166.365 C 166.251 166.324,171.349 160.400,171.139 160.236 C 171.063 160.176,169.769 161.538,168.264 163.263 M157.375 162.500 L 156.200 163.800 157.500 162.625 C 158.215 161.979,158.800 161.394,158.800 161.325 C 158.800 161.016,158.470 161.288,157.375 162.500 M115.536 163.517 C 116.491 164.661,117.481 165.725,117.736 165.880 C 117.991 166.036,117.419 165.227,116.464 164.083 C 115.509 162.939,114.519 161.875,114.264 161.720 C 114.009 161.564,114.581 162.373,115.536 163.517 M93.600 164.214 C 93.600 164.484,100.395 172.474,101.752 173.800 L 102.570 174.600 101.953 173.800 C 100.439 171.836,93.600 163.989,93.600 164.214 M119.019 167.580 C 120.819 169.819,122.799 171.986,122.787 171.701 C 122.779 171.536,121.744 170.311,120.487 168.980 C 119.229 167.649,118.569 167.019,119.019 167.580 M153.196 167.100 C 153.193 167.265,152.517 168.120,151.693 169.000 C 149.338 171.514,146.000 175.482,146.000 175.768 C 146.000 175.911,146.585 175.347,147.299 174.514 C 148.014 173.681,148.689 172.910,148.799 172.800 C 150.430 171.174,153.953 166.800,153.630 166.800 C 153.394 166.800,153.198 166.935,153.196 167.100 M163.973 168.300 C 161.624 170.835,160.651 172.000,160.881 172.000 C 161.003 172.000,162.130 170.830,163.385 169.400 C 165.846 166.597,166.248 165.844,163.973 168.300 M159.798 172.968 C 159.579 173.281,158.618 174.451,157.663 175.568 C 156.707 176.686,156.000 177.600,156.092 177.600 C 156.183 177.600,157.292 176.430,158.555 175.000 C 159.818 173.570,160.704 172.400,160.524 172.400 C 160.343 172.400,160.017 172.656,159.798 172.968 M125.601 175.400 C 126.151 176.060,126.645 176.675,126.700 176.767 C 126.755 176.858,126.888 176.845,126.996 176.738 C 127.104 176.630,126.609 176.015,125.897 175.371 L 124.603 174.200 125.601 175.400 M105.415 178.200 C 106.670 179.630,107.776 180.800,107.872 180.800 C 108.190 180.800,103.807 175.654,103.466 175.627 C 103.283 175.612,104.160 176.770,105.415 178.200 M142.275 179.800 C 140.996 181.230,140.052 182.400,140.176 182.400 C 140.418 182.400,142.704 179.939,144.044 178.235 C 145.486 176.402,144.663 177.130,142.275 179.800 M128.730 179.100 C 129.161 179.705,129.929 180.560,130.437 181.000 C 130.945 181.440,130.672 180.945,129.832 179.900 C 128.174 177.839,127.463 177.322,128.730 179.100 M155.000 178.540 C 154.780 178.793,153.543 180.215,152.251 181.700 C 150.959 183.185,149.984 184.400,150.084 184.400 C 150.378 184.400,155.706 178.372,155.546 178.220 C 155.466 178.143,155.220 178.288,155.000 178.540 M108.400 181.464 C 108.400 181.682,108.895 182.297,109.500 182.830 L 110.600 183.800 109.600 182.600 C 109.050 181.940,108.555 181.325,108.500 181.233 C 108.445 181.142,108.400 181.245,108.400 181.464 M133.200 184.400 C 134.344 185.720,135.357 186.800,135.453 186.800 C 135.773 186.800,131.804 182.056,131.460 182.028 C 131.274 182.012,132.056 183.080,133.200 184.400 M138.000 184.800 C 137.079 185.900,136.416 186.800,136.526 186.800 C 136.636 186.800,137.479 185.900,138.400 184.800 C 139.321 183.700,139.984 182.800,139.874 182.800 C 139.764 182.800,138.921 183.700,138.000 184.800 M110.400 184.125 C 110.400 184.194,110.973 184.779,111.674 185.425 L 112.949 186.600 111.974 185.322 C 111.147 184.237,110.400 183.669,110.400 184.125 M148.360 186.300 C 146.758 188.013,145.822 189.200,146.075 189.200 C 146.170 189.200,147.102 188.210,148.147 187.000 C 150.318 184.485,150.444 184.071,148.360 186.300 M113.200 187.012 C 113.200 187.162,113.650 187.819,114.200 188.473 C 114.750 189.127,115.200 189.539,115.200 189.388 C 115.200 189.238,114.750 188.581,114.200 187.927 C 113.650 187.273,113.200 186.861,113.200 187.012 M115.600 189.858 C 115.600 190.074,116.185 190.779,116.900 191.425 L 118.200 192.600 117.000 191.202 C 116.340 190.433,115.755 189.728,115.700 189.635 C 115.645 189.543,115.600 189.643,115.600 189.858 M143.254 192.034 C 142.513 192.895,142.063 193.585,142.254 193.566 C 142.444 193.548,143.206 192.828,143.946 191.966 C 144.687 191.105,145.137 190.415,144.946 190.434 C 144.756 190.452,143.994 191.172,143.254 192.034 M118.870 193.978 C 119.381 194.626,119.949 195.166,120.130 195.178 C 120.312 195.190,120.042 194.670,119.530 194.022 C 119.019 193.374,118.451 192.834,118.270 192.822 C 118.088 192.810,118.358 193.330,118.870 193.978 M120.400 195.725 C 120.400 195.794,120.985 196.379,121.700 197.025 L 123.000 198.200 121.825 196.900 C 120.730 195.688,120.400 195.416,120.400 195.725 M136.741 199.700 C 135.344 201.295,134.520 202.349,134.910 202.043 C 135.782 201.358,139.756 196.800,139.481 196.800 C 139.372 196.800,138.139 198.105,136.741 199.700 M122.800 198.525 C 122.800 198.594,123.373 199.179,124.074 199.825 L 125.349 201.000 124.374 199.722 C 123.547 198.637,122.800 198.069,122.800 198.525 M125.200 201.325 C 125.200 201.394,125.785 201.979,126.500 202.625 L 127.800 203.800 126.625 202.500 C 125.530 201.288,125.200 201.016,125.200 201.325 M132.958 204.100 C 131.731 205.429,130.297 207.322,131.063 206.600 C 131.917 205.795,134.488 202.800,134.325 202.800 C 134.233 202.800,133.617 203.385,132.958 204.100 M128.000 204.212 C 128.000 204.362,128.450 205.019,129.000 205.673 C 129.550 206.327,130.000 206.739,130.000 206.588 C 130.000 206.438,129.550 205.781,129.000 205.127 C 128.450 204.473,128.000 204.061,128.000 204.212 " stroke="none" fill="#581818" fill-rule="evenodd"></path><path id="path4" d="M66.049 131.961 C 65.377 132.387,65.548 132.693,68.174 135.785 C 70.706 138.765,72.000 140.114,72.000 139.772 C 72.000 139.627,70.740 138.060,69.200 136.289 C 65.190 131.678,64.535 132.001,77.900 131.991 L 89.400 131.982 91.734 134.491 C 93.532 136.424,93.762 136.591,92.734 135.216 C 89.771 131.253,91.173 131.599,78.118 131.606 C 71.783 131.609,66.352 131.769,66.049 131.961 M178.273 131.860 C 178.123 132.010,178.031 133.318,178.069 134.767 L 178.138 137.400 178.369 134.800 L 178.600 132.200 188.600 132.200 L 198.600 132.200 198.709 199.600 C 198.770 236.670,198.720 267.408,198.600 267.907 L 198.381 268.814 188.491 268.707 L 178.600 268.600 178.501 211.400 C 178.400 152.411,178.406 152.765,177.386 153.612 C 177.053 153.888,176.885 154.218,177.012 154.345 C 177.139 154.473,177.411 154.312,177.616 153.988 C 177.846 153.624,177.990 175.341,177.994 211.057 C 177.999 263.260,178.060 268.737,178.633 268.957 C 180.034 269.495,198.283 269.223,198.752 268.658 C 199.083 268.259,199.175 250.001,199.101 199.958 L 199.000 131.800 188.773 131.693 C 183.149 131.635,178.424 131.710,178.273 131.860 M232.673 131.860 C 232.146 132.387,232.352 268.192,232.880 268.720 C 233.387 269.227,251.699 269.444,252.967 268.957 C 253.538 268.738,253.600 264.983,253.600 230.557 L 253.600 192.400 283.594 192.400 L 313.588 192.400 313.694 230.415 C 313.787 263.692,313.875 268.477,314.400 268.809 C 315.710 269.636,334.325 269.287,334.786 268.426 C 335.067 267.902,335.200 245.818,335.200 199.834 L 335.200 132.015 334.300 131.795 C 332.080 131.251,314.270 131.785,314.103 132.400 C 313.980 132.852,314.028 132.875,314.298 132.493 C 314.574 132.101,316.932 132.010,324.628 132.093 L 334.600 132.200 334.709 199.600 C 334.770 236.670,334.721 267.405,334.602 267.900 L 334.385 268.800 324.606 268.800 C 315.348 268.800,314.806 268.759,314.414 268.026 C 314.137 267.509,314.000 254.736,314.000 229.426 L 314.000 191.600 283.602 191.600 L 253.204 191.600 253.102 230.100 L 253.000 268.600 243.000 268.600 L 233.000 268.600 232.899 200.300 L 232.798 132.000 242.996 132.000 L 253.194 132.000 253.297 157.100 L 253.400 182.200 283.600 182.200 L 313.800 182.200 313.805 157.600 L 313.809 133.000 313.702 157.300 L 313.594 181.600 283.600 181.600 L 253.606 181.600 253.503 156.700 L 253.400 131.800 243.173 131.693 C 237.549 131.635,232.824 131.710,232.673 131.860 M95.853 139.400 C 97.894 141.764,98.555 142.284,97.250 140.500 C 96.023 138.822,94.539 137.200,94.230 137.200 C 94.078 137.200,94.809 138.190,95.853 139.400 M176.998 138.559 C 176.779 138.866,176.172 139.721,175.648 140.459 L 174.696 141.800 175.848 140.597 C 177.529 138.843,178.145 138.000,177.747 138.000 C 177.554 138.000,177.217 138.251,176.998 138.559 M72.704 204.283 C 72.779 250.452,72.931 268.275,73.253 268.663 C 73.716 269.222,81.258 269.460,82.567 268.957 C 83.140 268.737,83.200 263.264,83.200 211.057 L 83.201 153.400 84.147 154.500 C 84.667 155.105,85.241 155.600,85.421 155.600 C 85.602 155.600,85.232 155.060,84.600 154.400 C 83.968 153.740,83.305 153.200,83.127 153.200 C 82.948 153.200,82.757 179.165,82.701 210.900 L 82.600 268.600 78.000 268.600 L 73.400 268.600 73.299 204.819 C 73.243 169.739,73.063 140.903,72.899 140.739 C 72.734 140.574,72.647 169.169,72.704 204.283 M98.400 142.203 C 98.400 142.436,101.067 145.705,103.000 147.842 C 103.220 148.086,105.094 150.291,107.165 152.742 C 109.236 155.194,111.003 157.200,111.092 157.200 C 111.330 157.200,109.549 154.736,108.609 153.764 C 108.164 153.305,106.180 150.992,104.200 148.626 C 99.859 143.436,98.400 141.821,98.400 142.203 M172.600 143.741 C 172.160 144.232,170.813 145.796,169.606 147.217 C 168.399 148.638,167.229 149.998,167.006 150.239 C 166.783 150.481,165.700 151.724,164.600 153.001 C 163.500 154.278,162.185 155.790,161.677 156.361 C 161.169 156.933,160.386 157.940,159.935 158.600 C 158.632 160.511,161.255 157.575,171.000 146.219 C 171.220 145.962,172.020 145.088,172.778 144.276 C 173.537 143.464,173.987 142.811,173.778 142.824 C 173.570 142.838,173.040 143.250,172.600 143.741 M175.000 156.264 C 173.383 158.211,172.833 159.297,174.221 157.800 C 176.524 155.317,176.929 154.800,176.570 154.809 C 176.366 154.814,175.660 155.469,175.000 156.264 M87.256 158.000 C 89.397 160.706,89.992 161.341,90.197 161.136 C 90.285 161.048,89.267 159.812,87.936 158.388 C 85.549 155.836,85.540 155.831,87.256 158.000 M112.663 159.300 C 113.105 159.795,113.945 160.737,114.530 161.393 C 115.115 162.049,116.720 163.975,118.097 165.674 C 119.474 167.372,120.757 168.770,120.948 168.781 C 121.288 168.800,118.843 165.594,117.607 164.400 C 117.265 164.070,116.180 162.810,115.195 161.600 C 112.948 158.840,112.530 158.400,112.159 158.400 C 111.995 158.400,112.222 158.805,112.663 159.300 M170.199 161.920 C 169.540 162.721,167.233 165.406,165.074 167.888 C 162.915 170.370,161.340 172.400,161.574 172.400 C 161.808 172.400,162.005 172.265,162.011 172.100 C 162.018 171.935,162.783 170.970,163.711 169.955 C 166.100 167.344,170.064 162.824,170.946 161.704 C 172.170 160.150,171.498 160.344,170.199 161.920 M156.600 162.249 C 154.817 164.376,154.748 164.455,152.800 166.622 C 151.810 167.724,150.100 169.686,149.000 170.982 C 147.900 172.279,146.817 173.534,146.594 173.770 C 146.371 174.007,145.580 175.010,144.836 176.000 C 143.283 178.068,144.720 176.718,147.007 173.961 C 148.282 172.423,154.001 165.836,156.783 162.700 C 157.710 161.655,158.318 160.804,158.134 160.809 C 157.950 160.813,157.260 161.462,156.600 162.249 M91.935 163.400 C 93.101 165.108,94.774 166.959,94.973 166.760 C 95.066 166.667,94.236 165.603,93.129 164.396 C 92.022 163.188,91.485 162.740,91.935 163.400 M97.047 169.500 C 99.475 172.373,100.000 172.924,100.000 172.601 C 100.000 172.182,95.831 167.256,95.451 167.227 C 95.260 167.212,95.978 168.235,97.047 169.500 M122.799 171.199 C 124.933 173.747,125.848 174.344,124.006 171.985 C 122.298 169.799,121.736 169.200,121.391 169.200 C 121.245 169.200,121.879 170.099,122.799 171.199 M100.400 173.015 C 100.400 173.597,104.721 178.629,104.974 178.342 C 105.044 178.264,104.043 176.981,102.750 175.491 C 101.458 174.002,100.400 172.887,100.400 173.015 M159.254 174.434 C 157.810 176.113,157.857 176.596,159.318 175.093 C 160.696 173.675,161.330 172.797,160.949 172.834 C 160.757 172.852,159.994 173.572,159.254 174.434 M125.861 174.900 C 128.342 177.689,129.323 178.627,128.475 177.400 C 127.284 175.676,125.760 174.000,125.384 174.000 C 125.206 174.000,125.421 174.405,125.861 174.900 M154.899 179.548 C 154.404 180.175,152.664 182.198,151.032 184.044 C 149.400 185.889,148.156 187.489,148.267 187.599 C 148.378 187.710,148.830 187.350,149.271 186.800 C 150.002 185.889,153.234 182.093,154.200 181.012 C 154.420 180.765,155.036 180.077,155.570 179.482 C 156.103 178.887,156.373 178.402,156.170 178.404 C 155.966 178.406,155.395 178.920,154.899 179.548 M106.854 180.800 C 108.968 183.470,109.593 184.141,109.784 183.948 C 109.864 183.866,108.845 182.630,107.521 181.200 C 105.199 178.695,105.175 178.680,106.854 180.800 M129.600 178.978 C 129.600 179.370,135.676 186.400,136.015 186.400 C 136.158 186.400,137.034 185.500,137.961 184.400 C 140.017 181.962,139.739 181.748,137.570 184.100 L 136.002 185.800 134.501 184.178 C 133.676 183.286,132.235 181.683,131.300 180.617 C 130.365 179.551,129.600 178.813,129.600 178.978 M140.933 180.316 C 139.744 181.707,139.352 182.760,140.481 181.530 C 142.433 179.403,142.895 178.802,142.570 178.817 C 142.366 178.826,141.630 179.501,140.933 180.316 M110.836 185.379 C 111.415 186.127,114.901 190.244,118.264 194.152 C 118.999 195.006,119.600 195.570,119.600 195.406 C 119.600 195.137,117.448 192.522,114.163 188.801 C 112.325 186.719,110.105 184.437,110.836 185.379 M145.096 190.900 C 143.655 192.495,142.544 193.870,142.626 193.955 C 142.773 194.107,144.002 192.864,146.000 190.541 C 149.151 186.879,148.490 187.142,145.096 190.900 M136.213 201.200 C 130.529 207.850,130.598 207.810,128.566 205.700 L 127.122 204.200 128.646 206.100 C 129.484 207.145,130.281 208.000,130.416 208.000 C 130.721 208.000,133.923 204.573,136.599 201.383 C 137.699 200.073,139.139 198.399,139.799 197.664 C 140.996 196.333,141.774 195.200,141.490 195.200 C 141.408 195.200,139.034 197.900,136.213 201.200 M120.466 196.644 C 121.246 197.876,124.398 201.335,124.577 201.154 C 124.661 201.070,123.650 199.830,122.331 198.400 C 121.012 196.970,120.173 196.180,120.466 196.644 M125.215 202.198 C 126.134 203.453,126.822 204.111,127.015 203.918 C 127.112 203.821,126.615 203.215,125.911 202.571 C 125.207 201.927,124.894 201.759,125.215 202.198 " stroke="none" fill="#e44c4c" fill-rule="evenodd"></path></g></svg>